#!OML:ASF E:\Style4\Style4.ASF
:FULLY-SPECIFIED
:DEGREES
935
root 0.470352 17.4623 -1.7043 1.57228 -1.91802 2.95644
lowerback 9.84734 2.21137 -1.85285
upperback 5.24264 2.76787 -0.059624
thorax -0.155594 1.34816 0.706224
lowerneck 2.06895 -4.43237 -6.15778
upperneck -0.704418 -6.01728 4.98998
head -0.2185 -3.02918 2.67566
rclavicle 1.67973e-014 0
rhumerus 3.90981 2.73602 -55.1413
rradius 82.5754
rwrist 0.659847
rhand -30.4273 27.8533
rfingers 7.12502
rthumb -3.73006 -2.09381
lclavicle 1.67973e-014 0
lhumerus 0.520048 -12.9967 55.956
lradius 88.8189
lwrist 0.483845
lhand -22.8706 26.0846
lfingers 7.12502
lthumb 3.56802 56.0345
rfemur -21.4618 1.98449 13.531
rtibia 41.188
rfoot -19.776 -12.0097
rtoes -14.1535
lfemur -19.3656 0.827605 -23.4407
ltibia 38.7274
lfoot -21.2887 6.70986
ltoes -12.0565
936
root 0.470729 17.4724 -1.69712 1.63923 -1.95838 2.93026
lowerback 9.81222 2.20845 -1.82698
upperback 5.17416 2.76637 -0.0520457
thorax -0.206793 1.34854 0.699431
lowerneck 2.03718 -4.40451 -6.14631
upperneck -0.756625 -5.9773 4.9512
head -0.233497 -3.00835 2.66082
rclavicle -2.08724e-015 8.34896e-015
rhumerus 3.23715 3.16787 -55.7239
rradius 84.4979
rwrist 1.83966
rhand -31.3995 27.6986
rfingers 7.12502
rthumb -4.66894 -2.22992
lclavicle -2.08724e-015 8.34896e-015
lhumerus 0.0920994 -13.0058 56.8169
lradius 90.0225
lwrist -0.579565
lhand -24.259 25.7038
lfingers 7.12502
lthumb 2.22727 55.6719
rfemur -21.4064 2.05839 13.5638
rtibia 40.9763
rfoot -19.6389 -12.1351
rtoes -14.3274
lfemur -19.3045 0.816919 -23.4149
ltibia 38.5248
lfoot -21.2253 6.78047
ltoes -12.2474
937
root 0.472412 17.4854 -1.68367 1.70584 -2.02452 2.92908
lowerback 9.67979 2.20934 -1.81392
upperback 5.12768 2.77129 -0.0575142
thorax -0.182115 1.35141 0.69008
lowerneck 1.96834 -4.37289 -6.13868
upperneck -0.795081 -5.9307 4.91519
head -0.237899 -2.98388 2.64627
rclavicle 3.39922e-014 -1.55052e-014
rhumerus 2.6079 3.52318 -56.4353
rradius 86.3843
rwrist 2.9888
rhand -31.7298 27.6177
rfingers 7.12502
rthumb -4.98782 -2.30361
lclavicle 3.39922e-014 -1.55052e-014
lhumerus -0.467041 -13.3008 57.4714
lradius 91.4563
lwrist -1.32603
lhand -25.8063 26.3108
lfingers 7.12502
lthumb 0.732864 56.2893
rfemur -21.331 2.03703 13.5585
rtibia 40.7575
rfoot -19.5353 -12.121
rtoes -14.3167
lfemur -19.2137 0.875002 -23.4333
ltibia 38.3324
lfoot -21.1703 6.97419
ltoes -13.25
938
root 0.472728 17.4958 -1.67228 1.74916 -2.06348 2.92697
lowerback 9.63174 2.23043 -1.75515
upperback 5.05991 2.80417 -0.08973
thorax -0.222845 1.36997 0.621046
lowerneck 1.91061 -4.37789 -6.16277
upperneck -0.77798 -5.93492 4.95312
head -0.220335 -2.98568 2.66123
rclavicle 2.69353e-014 -7.55382e-015
rhumerus 1.88631 3.66914 -57.2104
rradius 88.275
rwrist 4.16271
rhand -31.7493 27.8385
rfingers 7.12502
rthumb -5.00666 -2.08238
lclavicle 2.69353e-014 -7.55382e-015
lhumerus -0.984903 -13.6488 57.9281
lradius 92.8522
lwrist -2.75893
lhand -25.9757 25.085
lfingers 7.12502
lthumb 0.569257 55.0639
rfemur -21.238 1.97454 13.556
rtibia 40.5603
rfoot -19.479 -12.0321
rtoes -14.3844
lfemur -19.1155 0.923539 -23.4403
ltibia 38.1586
lfoot -21.1381 7.10344
ltoes -14.0252
939
root 0.47206 17.5034 -1.6591 1.84268 -2.12836 2.86873
lowerback 9.51842 2.26391 -1.66234
upperback 4.98108 2.8578 -0.104431
thorax -0.23905 1.3991 0.551398
lowerneck 1.8033 -4.38126 -6.21384
upperneck -0.671364 -5.93648 5.03397
head -0.163858 -2.98622 2.69238
rclavicle -2.3556e-014 5.56597e-015
rhumerus 1.12983 3.85972 -57.9675
rradius 90.1534
rwrist 5.17751
rhand -31.9486 28.2215
rfingers 7.12502
rthumb -5.19914 -1.6947
lclavicle -2.3556e-014 5.56597e-015
lhumerus -1.44426 -14.1663 58.5756
lradius 94.173
lwrist -4.03659
lhand -27.0717 24.719
lfingers 7.12502
lthumb -0.489344 54.6982
rfemur -21.2006 2.08122 13.6195
rtibia 40.3899
rfoot -19.4721 -12.0336
rtoes -14.311
lfemur -19.0745 1.00177 -23.3738
ltibia 38.0016
lfoot -21.0635 7.03056
ltoes -13.5919
